<mxfile host="Electron" modified="2025-01-11T12:34:44.875Z" agent="Mozilla/5.0 (Windows NT 10.0; Win64; x64) AppleWebKit/537.36 (KHTML, like Gecko) draw.io/21.1.2 Chrome/106.0.5249.199 Electron/21.4.3 Safari/537.36" etag="UfLYoamrl7FlrBxC47q-" version="21.1.2" type="device" pages="2">
  <diagram name="Views" id="wAXMRrhnX-YWbiJUw-BA">
    <mxGraphModel dx="442" dy="795" grid="1" gridSize="10" guides="1" tooltips="1" connect="1" arrows="1" fold="1" page="1" pageScale="1" pageWidth="850" pageHeight="1100" math="0" shadow="0">
      <root>
        <mxCell id="0" />
        <mxCell id="1" parent="0" />
        <mxCell id="GL9mVHAH-XKeBI3alYUW-4" value="" style="rounded=0;whiteSpace=wrap;html=1;" vertex="1" parent="1">
          <mxGeometry x="60" y="100" width="300" height="140" as="geometry" />
        </mxCell>
        <mxCell id="GL9mVHAH-XKeBI3alYUW-2" value="Conversion View" style="rounded=0;whiteSpace=wrap;html=1;" vertex="1" parent="1">
          <mxGeometry x="80" y="160" width="120" height="60" as="geometry" />
        </mxCell>
        <mxCell id="GL9mVHAH-XKeBI3alYUW-3" value="History View" style="rounded=0;whiteSpace=wrap;html=1;" vertex="1" parent="1">
          <mxGeometry x="220" y="160" width="120" height="60" as="geometry" />
        </mxCell>
        <mxCell id="GL9mVHAH-XKeBI3alYUW-6" value="MainWindow" style="text;html=1;strokeColor=none;fillColor=none;align=center;verticalAlign=middle;whiteSpace=wrap;rounded=0;" vertex="1" parent="1">
          <mxGeometry x="165" y="110" width="90" height="30" as="geometry" />
        </mxCell>
        <mxCell id="GL9mVHAH-XKeBI3alYUW-8" value="Views in a nutshell" style="text;html=1;strokeColor=#d6b656;fillColor=#fff2cc;align=center;verticalAlign=middle;whiteSpace=wrap;rounded=0;" vertex="1" parent="1">
          <mxGeometry x="20" y="30" width="130" height="30" as="geometry" />
        </mxCell>
      </root>
    </mxGraphModel>
  </diagram>
  <diagram id="cZvHWxoe-WqmMHzHElbF" name="ViewModels">
    <mxGraphModel dx="442" dy="795" grid="1" gridSize="10" guides="1" tooltips="1" connect="1" arrows="1" fold="1" page="1" pageScale="1" pageWidth="850" pageHeight="1100" math="0" shadow="0">
      <root>
        <mxCell id="0" />
        <mxCell id="1" parent="0" />
        <mxCell id="s7mXlwP2duCpiVbKWQ99-1" value="MainViewModel" style="swimlane;fontStyle=0;childLayout=stackLayout;horizontal=1;startSize=26;fillColor=none;horizontalStack=0;resizeParent=1;resizeParentMax=0;resizeLast=0;collapsible=1;marginBottom=0;whiteSpace=wrap;html=1;" vertex="1" parent="1">
          <mxGeometry x="70" y="120" width="280" height="216" as="geometry" />
        </mxCell>
        <mxCell id="s7mXlwP2duCpiVbKWQ99-2" value="+ SelectViewModelCommand: ICommand" style="text;strokeColor=none;fillColor=none;align=left;verticalAlign=top;spacingLeft=4;spacingRight=4;overflow=hidden;rotatable=0;points=[[0,0.5],[1,0.5]];portConstraint=eastwest;whiteSpace=wrap;html=1;" vertex="1" parent="s7mXlwP2duCpiVbKWQ99-1">
          <mxGeometry y="26" width="280" height="26" as="geometry" />
        </mxCell>
        <mxCell id="s7mXlwP2duCpiVbKWQ99-3" value="+ ExitApplicationCommand: ICommand" style="text;strokeColor=none;fillColor=none;align=left;verticalAlign=top;spacingLeft=4;spacingRight=4;overflow=hidden;rotatable=0;points=[[0,0.5],[1,0.5]];portConstraint=eastwest;whiteSpace=wrap;html=1;" vertex="1" parent="s7mXlwP2duCpiVbKWQ99-1">
          <mxGeometry y="52" width="280" height="26" as="geometry" />
        </mxCell>
        <mxCell id="s7mXlwP2duCpiVbKWQ99-4" value="+ ClearSelectedImageCommand: ICommand" style="text;strokeColor=none;fillColor=none;align=left;verticalAlign=top;spacingLeft=4;spacingRight=4;overflow=hidden;rotatable=0;points=[[0,0.5],[1,0.5]];portConstraint=eastwest;whiteSpace=wrap;html=1;" vertex="1" parent="s7mXlwP2duCpiVbKWQ99-1">
          <mxGeometry y="78" width="280" height="26" as="geometry" />
        </mxCell>
        <mxCell id="s7mXlwP2duCpiVbKWQ99-17" value="+ ConversionViewModel: ConversionViewModel" style="text;strokeColor=none;fillColor=none;align=left;verticalAlign=top;spacingLeft=4;spacingRight=4;overflow=hidden;rotatable=0;points=[[0,0.5],[1,0.5]];portConstraint=eastwest;whiteSpace=wrap;html=1;" vertex="1" parent="s7mXlwP2duCpiVbKWQ99-1">
          <mxGeometry y="104" width="280" height="26" as="geometry" />
        </mxCell>
        <mxCell id="s7mXlwP2duCpiVbKWQ99-18" value="+ HistoryViewModel: ConversionViewModel" style="text;strokeColor=none;fillColor=none;align=left;verticalAlign=top;spacingLeft=4;spacingRight=4;overflow=hidden;rotatable=0;points=[[0,0.5],[1,0.5]];portConstraint=eastwest;whiteSpace=wrap;html=1;" vertex="1" parent="s7mXlwP2duCpiVbKWQ99-1">
          <mxGeometry y="130" width="280" height="26" as="geometry" />
        </mxCell>
        <mxCell id="s7mXlwP2duCpiVbKWQ99-19" value="+ SelectedViewModel: ViewModel?" style="text;strokeColor=none;fillColor=none;align=left;verticalAlign=top;spacingLeft=4;spacingRight=4;overflow=hidden;rotatable=0;points=[[0,0.5],[1,0.5]];portConstraint=eastwest;whiteSpace=wrap;html=1;" vertex="1" parent="s7mXlwP2duCpiVbKWQ99-1">
          <mxGeometry y="156" width="280" height="26" as="geometry" />
        </mxCell>
        <mxCell id="s7mXlwP2duCpiVbKWQ99-21" value="" style="line;strokeWidth=1;fillColor=none;align=left;verticalAlign=middle;spacingTop=-1;spacingLeft=3;spacingRight=3;rotatable=0;labelPosition=right;points=[];portConstraint=eastwest;strokeColor=inherit;" vertex="1" parent="s7mXlwP2duCpiVbKWQ99-1">
          <mxGeometry y="182" width="280" height="8" as="geometry" />
        </mxCell>
        <mxCell id="s7mXlwP2duCpiVbKWQ99-20" value="+ SelectViewModel(object? args): void" style="text;strokeColor=none;fillColor=none;align=left;verticalAlign=top;spacingLeft=4;spacingRight=4;overflow=hidden;rotatable=0;points=[[0,0.5],[1,0.5]];portConstraint=eastwest;whiteSpace=wrap;html=1;" vertex="1" parent="s7mXlwP2duCpiVbKWQ99-1">
          <mxGeometry y="190" width="280" height="26" as="geometry" />
        </mxCell>
        <mxCell id="s7mXlwP2duCpiVbKWQ99-5" value="MainWindowViewModel" style="swimlane;fontStyle=0;childLayout=stackLayout;horizontal=1;startSize=26;fillColor=none;horizontalStack=0;resizeParent=1;resizeParentMax=0;resizeLast=0;collapsible=1;marginBottom=0;whiteSpace=wrap;html=1;" vertex="1" parent="1">
          <mxGeometry x="70" y="620" width="340" height="260" as="geometry" />
        </mxCell>
        <mxCell id="s7mXlwP2duCpiVbKWQ99-6" value="+ SelectImageCommand: ICommand" style="text;strokeColor=none;fillColor=none;align=left;verticalAlign=top;spacingLeft=4;spacingRight=4;overflow=hidden;rotatable=0;points=[[0,0.5],[1,0.5]];portConstraint=eastwest;whiteSpace=wrap;html=1;" vertex="1" parent="s7mXlwP2duCpiVbKWQ99-5">
          <mxGeometry y="26" width="340" height="26" as="geometry" />
        </mxCell>
        <mxCell id="s7mXlwP2duCpiVbKWQ99-7" value="+ ConvertImageCommand: ICommand" style="text;strokeColor=none;fillColor=none;align=left;verticalAlign=top;spacingLeft=4;spacingRight=4;overflow=hidden;rotatable=0;points=[[0,0.5],[1,0.5]];portConstraint=eastwest;whiteSpace=wrap;html=1;" vertex="1" parent="s7mXlwP2duCpiVbKWQ99-5">
          <mxGeometry y="52" width="340" height="26" as="geometry" />
        </mxCell>
        <mxCell id="s7mXlwP2duCpiVbKWQ99-8" value="+ ClearSelectedImageCommand: ICommand" style="text;strokeColor=none;fillColor=none;align=left;verticalAlign=top;spacingLeft=4;spacingRight=4;overflow=hidden;rotatable=0;points=[[0,0.5],[1,0.5]];portConstraint=eastwest;whiteSpace=wrap;html=1;" vertex="1" parent="s7mXlwP2duCpiVbKWQ99-5">
          <mxGeometry y="78" width="340" height="26" as="geometry" />
        </mxCell>
        <mxCell id="s7mXlwP2duCpiVbKWQ99-23" value="+ CurrentImageHeight: int" style="text;strokeColor=none;fillColor=none;align=left;verticalAlign=top;spacingLeft=4;spacingRight=4;overflow=hidden;rotatable=0;points=[[0,0.5],[1,0.5]];portConstraint=eastwest;whiteSpace=wrap;html=1;" vertex="1" parent="s7mXlwP2duCpiVbKWQ99-5">
          <mxGeometry y="104" width="340" height="26" as="geometry" />
        </mxCell>
        <mxCell id="s7mXlwP2duCpiVbKWQ99-24" value="+ CurrentImageWidth: int" style="text;strokeColor=none;fillColor=none;align=left;verticalAlign=top;spacingLeft=4;spacingRight=4;overflow=hidden;rotatable=0;points=[[0,0.5],[1,0.5]];portConstraint=eastwest;whiteSpace=wrap;html=1;" vertex="1" parent="s7mXlwP2duCpiVbKWQ99-5">
          <mxGeometry y="130" width="340" height="26" as="geometry" />
        </mxCell>
        <mxCell id="s7mXlwP2duCpiVbKWQ99-25" value="+ StandardizedLength: int" style="text;strokeColor=none;fillColor=none;align=left;verticalAlign=top;spacingLeft=4;spacingRight=4;overflow=hidden;rotatable=0;points=[[0,0.5],[1,0.5]];portConstraint=eastwest;whiteSpace=wrap;html=1;" vertex="1" parent="s7mXlwP2duCpiVbKWQ99-5">
          <mxGeometry y="156" width="340" height="26" as="geometry" />
        </mxCell>
        <mxCell id="s7mXlwP2duCpiVbKWQ99-26" value="+ ImageOrientation: ImageOrientation" style="text;strokeColor=none;fillColor=none;align=left;verticalAlign=top;spacingLeft=4;spacingRight=4;overflow=hidden;rotatable=0;points=[[0,0.5],[1,0.5]];portConstraint=eastwest;whiteSpace=wrap;html=1;" vertex="1" parent="s7mXlwP2duCpiVbKWQ99-5">
          <mxGeometry y="182" width="340" height="26" as="geometry" />
        </mxCell>
        <mxCell id="s7mXlwP2duCpiVbKWQ99-27" value="+ CurrentImage: BitmapImage?" style="text;strokeColor=none;fillColor=none;align=left;verticalAlign=top;spacingLeft=4;spacingRight=4;overflow=hidden;rotatable=0;points=[[0,0.5],[1,0.5]];portConstraint=eastwest;whiteSpace=wrap;html=1;" vertex="1" parent="s7mXlwP2duCpiVbKWQ99-5">
          <mxGeometry y="208" width="340" height="26" as="geometry" />
        </mxCell>
        <mxCell id="s7mXlwP2duCpiVbKWQ99-28" value="+ TransformedBitmapImage: RenderTargetBitmap?" style="text;strokeColor=none;fillColor=none;align=left;verticalAlign=top;spacingLeft=4;spacingRight=4;overflow=hidden;rotatable=0;points=[[0,0.5],[1,0.5]];portConstraint=eastwest;whiteSpace=wrap;html=1;" vertex="1" parent="s7mXlwP2duCpiVbKWQ99-5">
          <mxGeometry y="234" width="340" height="26" as="geometry" />
        </mxCell>
        <mxCell id="s7mXlwP2duCpiVbKWQ99-9" value="ConversionViewModel" style="swimlane;fontStyle=0;childLayout=stackLayout;horizontal=1;startSize=26;fillColor=none;horizontalStack=0;resizeParent=1;resizeParentMax=0;resizeLast=0;collapsible=1;marginBottom=0;whiteSpace=wrap;html=1;" vertex="1" parent="1">
          <mxGeometry x="70" y="390" width="280" height="52" as="geometry" />
        </mxCell>
        <mxCell id="s7mXlwP2duCpiVbKWQ99-12" value="+ field: type" style="text;strokeColor=none;fillColor=none;align=left;verticalAlign=top;spacingLeft=4;spacingRight=4;overflow=hidden;rotatable=0;points=[[0,0.5],[1,0.5]];portConstraint=eastwest;whiteSpace=wrap;html=1;" vertex="1" parent="s7mXlwP2duCpiVbKWQ99-9">
          <mxGeometry y="26" width="280" height="26" as="geometry" />
        </mxCell>
        <mxCell id="s7mXlwP2duCpiVbKWQ99-13" value="HistoryViewModel" style="swimlane;fontStyle=0;childLayout=stackLayout;horizontal=1;startSize=26;fillColor=none;horizontalStack=0;resizeParent=1;resizeParentMax=0;resizeLast=0;collapsible=1;marginBottom=0;whiteSpace=wrap;html=1;" vertex="1" parent="1">
          <mxGeometry x="70" y="480" width="340" height="112" as="geometry" />
        </mxCell>
        <mxCell id="s7mXlwP2duCpiVbKWQ99-14" value="+ FileHistory: ObservableCollection&amp;lt;LoadHistoryRecord&amp;gt;" style="text;strokeColor=none;fillColor=none;align=left;verticalAlign=top;spacingLeft=4;spacingRight=4;overflow=hidden;rotatable=0;points=[[0,0.5],[1,0.5]];portConstraint=eastwest;whiteSpace=wrap;html=1;" vertex="1" parent="s7mXlwP2duCpiVbKWQ99-13">
          <mxGeometry y="26" width="340" height="26" as="geometry" />
        </mxCell>
        <mxCell id="s7mXlwP2duCpiVbKWQ99-15" value="+ ShowHistory: bool" style="text;strokeColor=none;fillColor=none;align=left;verticalAlign=top;spacingLeft=4;spacingRight=4;overflow=hidden;rotatable=0;points=[[0,0.5],[1,0.5]];portConstraint=eastwest;whiteSpace=wrap;html=1;" vertex="1" parent="s7mXlwP2duCpiVbKWQ99-13">
          <mxGeometry y="52" width="340" height="26" as="geometry" />
        </mxCell>
        <mxCell id="s7mXlwP2duCpiVbKWQ99-22" value="" style="line;strokeWidth=1;fillColor=none;align=left;verticalAlign=middle;spacingTop=-1;spacingLeft=3;spacingRight=3;rotatable=0;labelPosition=right;points=[];portConstraint=eastwest;strokeColor=inherit;" vertex="1" parent="s7mXlwP2duCpiVbKWQ99-13">
          <mxGeometry y="78" width="340" height="8" as="geometry" />
        </mxCell>
        <mxCell id="s7mXlwP2duCpiVbKWQ99-16" value="+ LoadHistoryFile(): void" style="text;strokeColor=none;fillColor=none;align=left;verticalAlign=top;spacingLeft=4;spacingRight=4;overflow=hidden;rotatable=0;points=[[0,0.5],[1,0.5]];portConstraint=eastwest;whiteSpace=wrap;html=1;" vertex="1" parent="s7mXlwP2duCpiVbKWQ99-13">
          <mxGeometry y="86" width="340" height="26" as="geometry" />
        </mxCell>
      </root>
    </mxGraphModel>
  </diagram>
</mxfile>
